<svg width="29" height="23" viewBox="0 0 29 23" fill="none" xmlns="http://www.w3.org/2000/svg">
<path d="M29 2.83013V21.1633C29 22.2037 28.2161 22.9966 27.1875 22.9966H25.375V6.35834L14.5 14.2599L3.625 6.35834V22.9966H1.8125C0.783906 22.9966 0 22.2037 0 21.1633V2.83013C0 2.30947 0.193938 1.85114 0.519281 1.52664C0.688725 1.35516 0.890526 1.21989 1.11269 1.12887C1.33485 1.03785 1.57284 0.992941 1.8125 0.996813H2.41697L14.5 9.85814L26.583 0.996813H27.1875C27.7022 0.996813 28.1554 1.19298 28.4807 1.52664C28.8061 1.85114 29 2.30947 29 2.83013Z" fill="url(#paint0_linear)"/>
<defs>
<linearGradient id="paint0_linear" x1="50.4606" y1="28.0035" x2="29.0526" y2="-9.4224" gradientUnits="userSpaceOnUse">
<stop offset="0.0113208" stop-color="#FFE4D1"/>
<stop offset="1" stop-color="white"/>
</linearGradient>
</defs>
</svg>
