<svg width="29" height="29" viewBox="0 0 29 29" fill="none" xmlns="http://www.w3.org/2000/svg">
<path d="M22.2378 8.49958C23.1987 8.49958 23.9776 7.72066 23.9776 6.7598C23.9776 5.79895 23.1987 5.02002 22.2378 5.02002C21.277 5.02002 20.498 5.79895 20.498 6.7598C20.498 7.72066 21.277 8.49958 22.2378 8.49958Z" fill="url(#paint0_linear)"/>
<path d="M14.4982 7.05273C13.0258 7.05273 11.5864 7.48936 10.3621 8.30741C9.13781 9.12546 8.18359 10.2882 7.62011 11.6485C7.05663 13.0089 6.9092 14.5058 7.19646 15.95C7.48372 17.3941 8.19277 18.7207 9.23395 19.7618C10.2751 20.803 11.6017 21.5121 13.0458 21.7993C14.49 22.0866 15.9869 21.9391 17.3472 21.3757C18.7076 20.8122 19.8703 19.858 20.6884 18.6337C21.5064 17.4094 21.943 15.97 21.943 14.4976C21.943 12.5231 21.1587 10.6294 19.7625 9.23327C18.3663 7.8371 16.4727 7.05273 14.4982 7.05273ZM14.4982 19.3303C13.5424 19.3303 12.608 19.0468 11.8133 18.5158C11.0186 17.9848 10.3991 17.23 10.0334 16.347C9.66759 15.4639 9.57189 14.4922 9.75836 13.5547C9.94483 12.6173 10.4051 11.7562 11.081 11.0803C11.7568 10.4044 12.618 9.94415 13.5554 9.75768C14.4929 9.57121 15.4646 9.66692 16.3476 10.0327C17.2307 10.3985 17.9855 11.0179 18.5165 11.8126C19.0475 12.6074 19.331 13.5417 19.331 14.4976C19.331 15.7793 18.8218 17.0085 17.9155 17.9148C17.0092 18.8211 15.7799 19.3303 14.4982 19.3303Z" fill="url(#paint1_linear)"/>
<path d="M14.4982 2.61209C18.3692 2.61209 18.8283 2.62659 20.3567 2.69666C21.2759 2.70758 22.1864 2.87636 23.0485 3.19564C23.6739 3.43691 24.2419 3.80643 24.7159 4.28044C25.1899 4.75445 25.5595 5.32245 25.8007 5.94788C26.12 6.80995 26.2888 7.72048 26.2997 8.63971C26.3698 10.1681 26.3843 10.6272 26.3843 14.4994C26.3843 18.3716 26.3698 18.8283 26.2997 20.3567C26.2888 21.2759 26.12 22.1864 25.8007 23.0485C25.5595 23.6739 25.1899 24.2419 24.7159 24.7159C24.2419 25.1899 23.6739 25.5595 23.0485 25.8007C22.1864 26.12 21.2759 26.2888 20.3567 26.2997C18.8283 26.3698 18.3692 26.3843 14.4982 26.3843C10.6272 26.3843 10.1681 26.3698 8.63971 26.2997C7.72048 26.2888 6.80995 26.12 5.94788 25.8007C5.32245 25.5595 4.75445 25.1899 4.28044 24.7159C3.80643 24.2419 3.43691 23.6739 3.19564 23.0485C2.87636 22.1864 2.70758 21.2759 2.69666 20.3567C2.62659 18.8283 2.61209 18.3692 2.61209 14.4982C2.61209 10.6272 2.62659 10.1681 2.69666 8.63971C2.70758 7.72048 2.87636 6.80995 3.19564 5.94788C3.43691 5.32245 3.80643 4.75445 4.28044 4.28044C4.75445 3.80643 5.32245 3.43691 5.94788 3.19564C6.80995 2.87636 7.72048 2.70758 8.63971 2.69666C10.1681 2.62659 10.6272 2.61209 14.4982 2.61209ZM14.4982 0C10.5607 0 10.0666 0.0169146 8.5201 0.0869891C7.31769 0.111269 6.12809 0.339221 5.00187 0.761155C4.03862 1.13363 3.16382 1.70327 2.43354 2.43354C1.70327 3.16382 1.13363 4.03862 0.761155 5.00187C0.339087 6.12847 0.111133 7.31849 0.0869891 8.52131C0.0169146 10.0678 0 10.5595 0 14.4982C0 18.4369 0.0169146 18.9298 0.0869891 20.4763C0.111269 21.6787 0.339221 22.8683 0.761155 23.9945C1.13363 24.9578 1.70327 25.8326 2.43354 26.5628C3.16382 27.2931 4.03862 27.8627 5.00187 28.2352C6.12847 28.6573 7.31849 28.8852 8.52131 28.9094C10.0678 28.9795 10.5607 28.9964 14.4982 28.9964C18.4357 28.9964 18.9298 28.9795 20.4763 28.9094C21.6791 28.8852 22.8691 28.6573 23.9957 28.2352C24.959 27.8627 25.8338 27.2931 26.564 26.5628C27.2943 25.8326 27.8639 24.9578 28.2364 23.9945C28.6581 22.8678 28.8856 21.6778 28.9094 20.4751C28.9795 18.9286 28.9964 18.4369 28.9964 14.4982C28.9964 10.5595 28.9795 10.0666 28.9094 8.5201C28.8851 7.31769 28.6572 6.12809 28.2352 5.00187C27.8627 4.03862 27.2931 3.16382 26.5628 2.43354C25.8326 1.70327 24.9578 1.13363 23.9945 0.761155C22.8678 0.339499 21.6778 0.111954 20.4751 0.0881972C18.9286 0.0157063 18.4369 0 14.4982 0Z" fill="url(#paint2_linear)"/>
<defs>
<linearGradient id="paint0_linear" x1="26.5526" y1="9.2915" x2="22.776" y2="4.28291" gradientUnits="userSpaceOnUse">
<stop offset="0.0113208" stop-color="#FFE4D1"/>
<stop offset="1" stop-color="white"/>
</linearGradient>
<linearGradient id="paint1_linear" x1="32.9617" y1="25.3311" x2="16.8012" y2="3.89851" gradientUnits="userSpaceOnUse">
<stop offset="0.0113208" stop-color="#FFE4D1"/>
<stop offset="1" stop-color="white"/>
</linearGradient>
<linearGradient id="paint2_linear" x1="50.4543" y1="35.5956" x2="18.9831" y2="-6.14259" gradientUnits="userSpaceOnUse">
<stop offset="0.0113208" stop-color="#FFE4D1"/>
<stop offset="1" stop-color="white"/>
</linearGradient>
</defs>
</svg>
