<svg width="32" height="34" viewBox="0 0 32 34" fill="none" xmlns="http://www.w3.org/2000/svg">
<path d="M13.8313 7.7852L8.75681 1.53758C8.17181 0.817622 7.09932 0.820821 6.41982 1.54718L2.24684 6.00611C1.00485 7.33243 0.64935 9.30191 1.36785 10.881C5.66025 20.3604 12.8279 28.0161 21.7092 32.6077C23.1882 33.3741 25.0332 32.9949 26.2752 31.6686L30.4872 27.168C31.1697 26.4401 31.1712 25.2898 30.4902 24.6658L24.6102 19.2821C23.9952 18.7189 23.0397 18.7925 22.4232 19.4517L20.3772 21.6372C20.2725 21.7543 20.1346 21.8314 19.9848 21.8569C19.8349 21.8823 19.6814 21.8546 19.5477 21.778C16.2034 19.7238 13.4293 16.761 11.5078 13.1913C11.4358 13.0485 11.4098 12.8845 11.4336 12.7244C11.4575 12.5643 11.5299 12.4169 11.6398 12.3049L13.6798 10.1275C14.2978 9.4651 14.3653 8.44116 13.8313 7.7836V7.7852Z" stroke="#03C192" stroke-width="2" stroke-linecap="round" stroke-linejoin="round"/>
</svg>
